<svg version="1.0" xmlns="http://www.w3.org/2000/svg" width="1365.333" height="1365.333" viewBox="0 0 1024 1024"><path d="M0 512v512h1024V0H0v512zm559-311.6c54.8 7.8 107 28.2 150.5 58.9 64.3 45.4 111.2 110.8 132.3 184.7 1.7 5.8 3.3 12 3.7 13.7l.7 3.3H180.8l.7-3.3c.4-1.7 2.3-8.6 4.2-15.2 10.9-37.8 30.2-76.2 54.2-108 57.5-76.2 141.6-124.2 236.4-135 16.7-1.9 66.7-1.3 82.7.9zm289.4 270.3c.9 3 4.6 26.6 4.6 29.5v2.8H173.7l.7-6.3c.8-6.9 3.4-23.2 4.2-26 .5-1.6 17.3-1.7 334.9-1.7 317.6 0 334.4.1 334.9 1.7zm-16.6 45l23.2.6V547H171.9l.3-15.2.3-15.3L456 516c155.9-.3 299-.6 318-.8 19-.1 45 .1 57.8.5zm22.4 48.8c-.1 2.2-.7 8.6-1.4 14.2l-1.1 10.3H513.8c-269.4 0-338-.3-338.3-1.3-.8-2.1-3.2-26.7-2.7-27.2.3-.3 153.8-.4 341.1-.3l340.6.3-.3 4zm-7.4 49.7c-2.2 9.8-3 11.9-2.2 6 .4-2.7.2-4.2-.5-4.2-.6 0-1.1-.8-1.2-1.8 0-1.4-.2-1.4-.9.3-.5 1.1-.9 2.7-.9 3.5 0 .9.4.8.9-.5.8-1.8.9-1.7.9.7.1 1.4-.2 3.5-.6 4.5-.6 1.6-.8 1.5-1.4-.7-.7-2.4-.7-2.4-.8-.3l-.1 2.3-192.2.2-192.3.3 192 .5 192 .5-195.5-.2c-107.5-.1-197.5-.2-200-.2s-60.7.1-129.5.2l-125 .2L311 625l121.5-.5-122.9-.5c-102.6-.4-123-.7-123.4-1.9-.4-1.1-.6-1.1-1.3 0-.6 1-.9.3-.9-1.9 0-1.9-.4-3.1-1-2.7-.5.3-.7 2-.5 3.8.3 1.8-.4-.2-1.5-4.3-1-4.1-1.9-8.3-2-9.3 0-1.6 16.6-1.7 334.9-1.7h334.8l-1.9 8.2zm-472.5 16.5c-32.1.2-84.5.2-116.5 0-32.1-.1-5.9-.2 58.2-.2 64.1 0 90.3.1 58.3.2zm358 0c-50.8.2-133.8.2-184.5 0-50.8-.1-9.3-.2 92.2-.2s143 .1 92.3.2z"/></svg>
